<?xml version="1.0" standalone="no"?>
<!DOCTYPE svg PUBLIC "-//W3C//DTD SVG 20010904//EN"
 "http://www.w3.org/TR/2001/REC-SVG-20010904/DTD/svg10.dtd">
<svg version="1.0" xmlns="http://www.w3.org/2000/svg"
 width="700.000000pt" height="700.000000pt" viewBox="0 0 700.000000 700.000000"
 preserveAspectRatio="xMidYMid meet">
<metadata>
Created by potrace 1.11, written by Peter Selinger 2001-2013
</metadata>
<g transform="translate(0.000000,700.000000) scale(0.100000,-0.100000)"
fill="#000000" stroke="none">
<path d="M71 6982 c-19 -10 -43 -34 -53 -53 -17 -32 -18 -160 -18 -3429 0
-3269 1 -3397 18 -3429 10 -19 34 -43 53 -53 32 -17 160 -18 3429 -18 3269 0
3397 1 3429 18 19 10 43 34 53 53 17 32 18 160 18 3429 0 3269 -1 3397 -18
3429 -10 19 -34 43 -53 53 -32 17 -160 18 -3429 18 -3269 0 -3397 -1 -3429
-18z m4134 -2082 l126 -229 537 -3 537 -3 56 -26 c107 -51 180 -138 205 -248
11 -45 14 -261 14 -1061 0 -1115 2 -1075 -65 -1177 -41 -62 -110 -115 -180
-140 -47 -17 -155 -18 -1940 -18 l-1890 0 -57 23 c-80 32 -150 99 -190 180
l-33 67 0 1065 0 1065 28 60 c36 78 104 146 181 182 l61 28 559 5 559 5 129
228 129 227 554 0 553 0 127 -230z"/>
<path d="M3383 4539 c-411 -37 -777 -288 -947 -650 -197 -419 -109 -901 224
-1229 226 -223 515 -340 840 -340 498 0 933 294 1100 742 78 208 87 449 24
664 -152 525 -670 865 -1241 813z m292 -224 c191 -34 374 -127 510 -260 182
-178 268 -373 269 -615 1 -145 -21 -243 -80 -370 -262 -557 -1010 -713 -1505
-315 -164 132 -274 316 -313 524 -91 479 252 943 767 1036 99 18 248 18 352 0z"/>
</g>
</svg>
