<?xml version="1.0" encoding="UTF-8"?>
<svg width="30px" height="41px" viewBox="0 0 30 41" version="1.1" xmlns="http://www.w3.org/2000/svg" xmlns:xlink="http://www.w3.org/1999/xlink">
    <!-- Generator: Sketch 51.2 (57519) - http://www.bohemiancoding.com/sketch -->
    <title>Group 9</title>
    <desc>Created with Sketch.</desc>
    <defs></defs>
    <g id="Page-1" stroke="none" stroke-width="1" fill="none" fill-rule="evenodd">
        <g id="Group-9" transform="translate(0.000000, 1.000000)">
            <g id="Group-8">
                <rect id="Rectangle-11" fill="#FFFFFF" x="0" y="11" width="30" height="29"></rect>
                <path d="M14.9953475,19 C19.5340727,19 23,15.7834421 23,11.9533005 C23,8.12315897 19.5387251,0.998335134 15,0.998335134 C10.4612749,0.998335134 7,8.12315897 7,11.9533005 C7,15.7834421 10.4566224,19 14.9953475,19 Z" id="Oval-3" stroke="#FFFFFF" stroke-width="3"></path>
            </g>
            <g id="photos" transform="translate(5.000000, 16.000000)">
                <g id="Group" fill="#000000" fill-rule="nonzero">
                    <rect id="Rectangle-2" x="0" y="4.37000001" width="19" height="11.59" rx="2"></rect>
                    <polygon id="Polygon" transform="translate(10.000047, 5.911314) rotate(35.000000) translate(-10.000047, -5.911314) " points="9.61656429 1.87442165 14.3106494 4.14604742 12.0341678 9.28442165 6.18678582 9.94820574 5.68944404 4.62422086"></polygon>
                </g>
                <path d="M2.28,3.8 L4.56,3.8" id="Line-8" stroke="#C6574A" stroke-width="0.5" stroke-linecap="square"></path>
                <ellipse id="Oval" stroke="#C6574A" stroke-width="0.5" fill="#FFFFFF" fill-rule="nonzero" cx="9.5" cy="9.88" rx="4.94" ry="4.56"></ellipse>
                <ellipse id="Oval" fill="#000000" fill-rule="nonzero" cx="9.5" cy="9.88" rx="4.18" ry="3.8"></ellipse>
            </g>
        </g>
    </g>
</svg>