<?xml version="1.0" encoding="UTF-8"?>
<svg width="29px" height="37px" viewBox="0 0 29 37" version="1.1" xmlns="http://www.w3.org/2000/svg" xmlns:xlink="http://www.w3.org/1999/xlink">
    <!-- Generator: Sketch 51.2 (57519) - http://www.bohemiancoding.com/sketch -->
    <title>Group 6</title>
    <desc>Created with Sketch.</desc>
    <defs></defs>
    <g id="Page-1" stroke="none" stroke-width="1" fill="none" fill-rule="evenodd">
        <g id="Group-6" transform="translate(0.000000, 1.000000)" stroke="#FFFFFF">
            <g id="Group-5">
                <path d="M9.66666667,8.47705793 C9.900288,7.36370561 10.3360239,6.20229625 10.9738742,4.99282984 C11.9306498,3.17863024 13.6772591,2.33502295 14.4802827,2.46815757 C15.3074816,2.60530025 16.3161854,3.67315744 16.756361,5.81071866 C16.9025082,6.52043206 16.948726,7.85625312 16.8950144,9.81818182" id="Line" stroke-linecap="square"></path>
                <path d="M16.1118552,5.45644727 C16.092965,4.56082346 16.4337499,3.54391295 17.1342099,2.40571573 C18.1849,0.698419905 20.157072,-0.112704902 21.0389182,0.0125846026 C21.9473128,0.141645996 23.5069448,1.13846492 23.9903269,3.15006791 C24.1508195,3.81796065 24.2017599,4.94975619 24.1431482,6.54545455" id="Line" stroke-linecap="square"></path>
                <path d="M0.89540024,6.38025167 C0.70754047,11.9617487 0.583690836,16.1815479 0.523859974,19.0389369 C0.463308809,21.930726 0.517985137,25.8527345 0.688055292,30.8029754 C3.61348522,31.8808213 6.26122275,32.709422 8.63045076,33.288918 C10.9943129,33.8671016 14.657869,34.5731507 19.6165136,35.405733 C19.4871635,31.8293304 19.422479,28.4619909 19.422479,25.3036468 C19.422479,22.0399701 19.4915627,17.1463911 19.6297123,10.6216134 C15.6138249,9.98365276 12.5106017,9.40337844 10.3168345,8.87978051 C8.15827663,8.36458618 5.01846426,7.53154988 0.89540024,6.38025167 Z" id="Rectangle-7"></path>
                <path d="M11.5564374,4.611376 C10.0328388,5.02898383 8.64578492,5.36741155 7.39491485,5.6266393 C6.39200239,5.83448081 4.80629051,6.00046535 2.62958288,6.12661578 C6.00940505,7.5057588 9.01638708,8.42163886 11.6483172,8.87520465 C14.77282,9.41365647 17.6138353,9.83025954 20.1710617,10.1250521 L26.3810206,7.59810336 C22.965777,7.10475351 20.2891589,6.67162442 18.3495807,6.29834063 C16.1129255,5.86788253 13.8485381,5.30553589 11.5564374,4.611376 Z" id="Rectangle-8"></path>
                <path d="M20.1809679,11.0415554 L19.8333367,18.0174381 C19.8325994,27.6071223 19.9539645,33.3447818 20.1934517,35.176811 C20.2158037,35.3477992 20.2466255,35.430566 20.3048571,35.4698783 L27.6944444,31.5605003 L27.6944444,8.09664619 L20.1809679,11.0415554 Z" id="Rectangle-9"></path>
            </g>
        </g>
    </g>
</svg>