<?xml version="1.0" encoding="UTF-8"?>
<svg width="22px" height="30px" viewBox="0 0 22 30" version="1.1" xmlns="http://www.w3.org/2000/svg" xmlns:xlink="http://www.w3.org/1999/xlink">
    <!-- Generator: Sketch 51.2 (57519) - http://www.bohemiancoding.com/sketch -->
    <title>Group 9</title>
    <desc>Created with Sketch.</desc>
    <defs></defs>
    <g id="Page-1" stroke="none" stroke-width="1" fill="none" fill-rule="evenodd">
        <g id="Group-9" transform="translate(0.000000, 1.000000)">
            <g id="Group-8">
                <rect id="Rectangle-11" fill="#FFFFFF" x="0" y="8" width="22" height="21"></rect>
                <path d="M10.9965106,13 C14.4005545,13 17,10.6092944 17,7.76254296 C17,4.91579154 14.4005545,0 10.9965106,0 C7.5924668,0 5,4.91579154 5,7.76254296 C5,10.6092944 7.5924668,13 10.9965106,13 Z" id="Oval-3" stroke="#FFFFFF" stroke-width="2"></path>
            </g>
            <g id="photos" transform="translate(3.000000, 11.000000)">
                <g id="Group" fill="#000000" fill-rule="nonzero">
                    <rect id="Rectangle-2" x="0" y="3.45000001" width="15" height="9.14999999" rx="2"></rect>
                    <polygon id="Polygon" transform="translate(7.894774, 4.666827) rotate(35.000000) translate(-7.894774, -4.666827) " points="7.59202444 1.47980657 11.2978811 3.27319533 9.50065883 7.32980657 4.88430459 7.85384664 4.49166635 3.65070068"></polygon>
                </g>
                <path d="M1.8,3 L3.6,3" id="Line-8" stroke="#C6574A" stroke-width="0.5" stroke-linecap="square"></path>
                <ellipse id="Oval" stroke="#C6574A" stroke-width="0.5" fill="#FFFFFF" fill-rule="nonzero" cx="7.5" cy="7.8" rx="3.9" ry="3.6"></ellipse>
                <ellipse id="Oval" fill="#000000" fill-rule="nonzero" cx="7.5" cy="7.8" rx="3.3" ry="3"></ellipse>
            </g>
        </g>
    </g>
</svg>