<?xml version="1.0" encoding="UTF-8"?>
<svg width="28px" height="24px" viewBox="0 0 28 24" version="1.1" xmlns="http://www.w3.org/2000/svg" xmlns:xlink="http://www.w3.org/1999/xlink">
    <!-- Generator: Sketch 51.2 (57519) - http://www.bohemiancoding.com/sketch -->
    <title>Group 2</title>
    <desc>Created with Sketch.</desc>
    <defs></defs>
    <g id="Page-1" stroke="none" stroke-width="1" fill="none" fill-rule="evenodd">
        <g id="Group-2" fill="#FFFFFF">
            <g id="Group">
                <polygon id="Rectangle-2" points="4.54674939 2.0819133 6.38763983 0.575150963 9.73065888 16.0179469 7.42598876 16.0179469"></polygon>
                <path d="M8.39602422,15.3126183 L8.97486965,15.2341202 C9.36066302,15.1818022 9.71582249,15.4521374 9.76814052,15.8379307 C9.78765303,15.9818161 9.76225744,16.1282167 9.69542457,16.257124 L8.51870471,18.5267825 C8.25470965,19.0359764 7.64806173,19.2625984 7.11487962,19.0512013 L7.11487962,19.0512013 C6.59312243,18.8443341 6.33623288,18.2550557 6.53978665,17.7319969 C6.70574465,17.3055616 6.82117973,17.019484 6.88609731,16.8737661 C6.95352983,16.7224032 7.08002883,16.4675512 7.26559431,16.1092101 L7.2656239,16.1092254 C7.49024082,15.6754731 7.91199402,15.3782584 8.39602422,15.3126183 Z" id="Rectangle-3"></path>
                <rect id="Rectangle" x="0" y="0" width="6.55319149" height="2.34146341" rx="1.17073171"></rect>
                <path d="M8.28125421,16.9756097 L25.0420342,16.9756094 C25.6886115,16.9756094 26.212766,17.4997639 26.212766,18.1463412 C26.212766,18.1463412 26.212766,18.1463413 26.212766,18.1463413 L26.212766,18.1463413 C26.212766,18.7642233 25.7118736,19.2651156 25.0939916,19.2651156 C25.0774725,19.2651156 25.0609555,19.2647497 25.0444526,19.2640183 C24.3556394,19.2335028 23.9096422,19.2155293 23.7064603,19.2101127 C20.5591019,19.126208 18.1560873,19.2101127 16.6808511,19.2101127 C13.7582513,19.2101127 10.8356516,19.2101127 7.91305184,19.2101127 L7.91305184,19.2101127 C7.38230404,19.2101127 6.95204793,18.7798566 6.95204793,18.2491088 C6.95204793,18.196765 6.95632451,18.1445086 6.96483499,18.0928612 L6.96483499,18.0928612 C7.07102465,17.44843 7.62813255,16.9756097 8.28125421,16.9756097 Z" id="Rectangle-4"></path>
                <path d="M23.6464166,23.4268983 C24.9624994,23.4268983 25.8677481,22.2428118 25.8677481,21.2729459 C25.8677481,20.30308 24.9817866,19.1189935 23.6657038,19.1189935 C22.349621,19.1189935 21.478313,20.30308 21.478313,21.2729459 C21.478313,22.2428118 22.3303337,23.4268983 23.6464166,23.4268983 Z" id="Oval"></path>
                <path d="M8.52760384,23.4514915 C9.84368665,23.4514915 10.8224492,22.3171934 10.8224492,21.3473275 C10.8224492,20.3774616 9.84368665,19.0977641 8.52760384,19.0977641 C7.21152103,19.0977641 6.46553918,20.3774616 6.46553918,21.3473275 C6.46553918,22.3171934 7.21152103,23.4514915 8.52760384,23.4514915 Z" id="Oval"></path>
                <path d="M7.45386273,2.08872581 L26,2.08872581 C27.1045695,2.08872581 28,2.98415631 28,4.08872581 L28,10.7992241 C28,11.8021604 27.2571744,12.650006 26.2629436,12.7818639 L10.2033484,14.9117356 C9.21701561,15.042546 8.28451589,14.4284276 8.01511352,13.4706249 L5.52857151,4.6302549 C5.22949326,3.56694592 5.84902466,2.46251285 6.91233364,2.1634346 C7.08857313,2.1138635 7.27078446,2.08872581 7.45386273,2.08872581 Z" id="Rectangle-5"></path>
            </g>
        </g>
    </g>
</svg>