<?xml version="1.0" encoding="UTF-8"?>
<svg width="86px" height="71px" viewBox="0 0 86 71" version="1.1" xmlns="http://www.w3.org/2000/svg" xmlns:xlink="http://www.w3.org/1999/xlink">
    <!-- Generator: Sketch 51.2 (57519) - http://www.bohemiancoding.com/sketch -->
    <title>Group 3</title>
    <desc>Created with Sketch.</desc>
    <defs></defs>
    <g id="Page-3" stroke="none" stroke-width="1" fill="none" fill-rule="evenodd">
        <g id="Group-3">
            <g id="Group-2">
                <rect id="Rectangle-17" fill="#000000" x="17.125" y="58" width="27.7708333" height="2" rx="1"></rect>
                <path d="M11.720431,1 L1,21.1018689 L1,31.25 L85,31.25 L85,21.4006659 L74.0023208,1 L11.720431,1 Z" id="Rectangle-10" stroke="#000000" stroke-width="2"></path>
                <rect id="Rectangle-16" stroke="#000000" stroke-width="2" x="15.3333333" y="6.375" width="6.0625" height="18.6041667" rx="2"></rect>
                <rect id="Rectangle-16" stroke="#000000" stroke-width="2" x="27.875" y="6.375" width="6.0625" height="18.6041667" rx="1"></rect>
                <rect id="Rectangle-16" stroke="#000000" stroke-width="2" x="40.4166667" y="6.375" width="6.0625" height="18.6041667" rx="1"></rect>
                <rect id="Rectangle-16" stroke="#000000" stroke-width="2" x="52.0625" y="6.375" width="6.0625" height="18.6041667" rx="1"></rect>
                <rect id="Rectangle-16" stroke="#000000" stroke-width="2" x="64.6041667" y="6.375" width="6.0625" height="18.6041667" rx="1"></rect>
                <rect id="Rectangle-13" fill="#C6574A" x="50.1666667" y="36.7291667" width="19.7083333" height="34.0416667" rx="2"></rect>
                <rect id="Rectangle-11" stroke="#000000" stroke-width="2" x="9.95833333" y="31.4583333" width="67.875" height="38.3125" rx="1"></rect>
                <rect id="Rectangle-12" stroke="#000000" stroke-width="2" x="18.0208333" y="37.7291667" width="25.7708333" height="15.0208333" rx="1"></rect>
            </g>
            <g id="photos" transform="translate(56.000000, 44.000000)" fill="#FFFFFF" fill-rule="nonzero">
                <g id="Group">
                    <rect id="Rectangle-2" x="0" y="1.89411765" width="8" height="5.02352941" rx="1"></rect>
                    <polygon id="Polygon" transform="translate(4.200986, 2.555540) rotate(35.000000) translate(-4.200986, -2.555540) " points="4.05119027 0.805803498 6.02764715 1.79040909 5.06912861 4.0175682 2.60707302 4.30527648 2.37432517 1.97995708"></polygon>
                </g>
                <ellipse id="Oval" stroke="#FFFFFF" stroke-width="0.2" cx="4" cy="4.28235294" rx="2.08" ry="1.97647059"></ellipse>
                <ellipse id="Oval" cx="4" cy="4.28235294" rx="1.76" ry="1.64705882"></ellipse>
            </g>
        </g>
    </g>
</svg>