<?xml version="1.0" encoding="UTF-8"?>
<svg width="37px" height="46px" viewBox="0 0 37 46" version="1.1" xmlns="http://www.w3.org/2000/svg" xmlns:xlink="http://www.w3.org/1999/xlink">
    <!-- Generator: Sketch 51.1 (57501) - http://www.bohemiancoding.com/sketch -->
    <title>Fill 9</title>
    <desc>Created with Sketch.</desc>
    <defs></defs>
    <g id="Page-3" stroke="none" stroke-width="1" fill="none" fill-rule="evenodd">
        <polygon id="Fill-9" stroke="#FFFFFF" stroke-width="2" fill="#FFFFFF" transform="translate(12.500000, 22.000000) rotate(12.000000) translate(-12.500000, -22.000000) " points="1.24852556 4.8804153 1.04800131 4.93727211 -0.135976409 5.23008467 -0.654980341 5.35374822 -1 5.56269699 -0.8422346 5.81286694 -0.769986894 5.98059452 -0.740498034 6.14690069 -0.784731324 6.34163525 -0.85697903 6.41128484 -0.971985583 6.46672023 -0.942496723 6.74389716 -0.81274574 7.38495767 -0.85697903 7.89809035 -0.82749017 8.2321241 -0.755242464 8.55336506 -0.640235911 8.74809962 -0.395478375 8.88597738 -0.222968545 9.03949076 -0.180209699 9.26265373 -0.265727392 9.62227304 -0.352719528 9.72035103 -0.438237221 9.73456523 -0.525229358 9.77578642 -0.582732634 9.9577282 -0.567988204 10.1794697 -0.424967235 10.2775477 -0.193479685 10.4722823 -0.0932175623 10.5419319 -0.00622542595 10.6528027 0.0365334207 10.833323 -0.00622542595 10.9726222 -0.107961992 10.9726222 -0.193479685 10.9029726 -0.395478375 10.6385885 -0.567988204 10.6385885 -0.682994758 10.8191088 -0.669724771 11.1943638 -0.482470511 11.6534825 -0.467726081 11.9192881 -0.640235911 12.1410296 -0.510484928 12.2789074 -0.424967235 12.4182065 -0.380733945 12.5845127 -0.380733945 12.7238119 -0.295216252 12.7095977 -0.250982962 12.9455534 -0.107961992 13.3080156 0.0792922674 13.6150423 0.22378768 13.7401273 0.555537353 13.7813485 0.701507208 14.0173042 0.672018349 14.3229096 0.483289646 14.5887152 0.831258191 14.9511773 0.961009174 15.1729189 0.961009174 15.4230888 0.918250328 15.6590446 0.931520315 15.9077931 1.00376802 16.1451703 1.14826343 16.354119 1.07601573 16.0470923 1.0612713 15.6448304 1.11877457 15.3250108 1.27801442 15.2837896 1.34878768 15.4771028 1.5655308 16.4507756 1.71002621 16.5900748 1.81028834 16.7165812 2.0697903 17.2993635 2.24524902 17.7997034 2.34551114 18.0370805 2.49000655 18.2176009 2.69200524 18.4265497 1.96952818 19.6646066 1.65252294 19.9559978 1.94003932 20.5387801 1.91055046 22.4449045 2.17005242 23.1684074 2.21428571 22.9736728 2.34551114 22.791731 2.44724771 22.7519313 2.57699869 22.8485878 2.63450197 23.0845436 2.64777195 23.4455843 2.89252949 24.378036 3.0370249 24.6836413 3.23902359 24.9750324 3.48378113 25.2109882 3.61353211 25.3772944 3.6990498 25.5734503 3.71379423 25.7966133 3.67103539 26.157654 3.68577982 26.3666028 3.80078637 26.5471232 4.19151376 26.7830789 4.33600917 26.9209567 4.39351245 27.0758915 4.52326343 27.6316668 4.29325033 29.6060194 4.29325033 29.773747 4.32126474 29.9812743 4.42300131 30.3707435 4.508519 30.5796922 4.62352556 30.761634 4.76802097 30.913726 4.85353866 30.9549472 5.04079292 30.8298622 5.17054391 30.6777702 5.25753604 30.5114641 5.25753604 30.0651381 5.31503932 29.8689821 5.4447903 29.7453186 5.53325688 29.6898832 5.63499345 29.6614548 5.73525557 29.6344478 5.96526868 29.6344478 6.08174967 29.6472406 6.1820118 29.7168902 6.26900393 29.800754 6.62876802 30.3849577 6.78653342 30.5114641 6.87352556 30.538471 7.03129096 30.636549 7.17873526 30.7474198 7.26425295 31.1354675 7.29374181 31.2747667 7.3792595 31.6372288 7.50901048 32.2214325 7.68299476 32.970521 7.89826343 33.8475372 8.13181974 34.9149807 9.125 39.1309561 9.5570118 41.0100735 9.72952163 41.7605834 9.85927261 42.3433657 9.94626474 42.720042 9.98902359 42.845127 10.017038 43.0398616 10.0612713 43.3454669 10.0612713 44.012113 10.4239843 44.5565169 10.7262451 45 12.8317497 44.5693097 13.5394823 44.4300105 14.2457405 44.2907113 14.9505242 44.1514122 15.6449869 43.9978988 16.3497706 43.8585996 17.0589777 43.7221433 17.7504915 43.5672085 18.4582241 43.4293307 19.1644823 43.2900315 19.8692661 43.1379396 20.5637287 42.9986404 21.2685125 42.845127 21.9777195 42.7058278 21.7477064 42.2054879 21.370249 41.8984612 20.6064875 41.4691923 20.4339777 41.3014647 20.3189712 41.1479513 20.2039646 40.9546382 20.102228 40.6888326 20.0314548 40.369013 20.0447248 40.1330573 20.0889581 39.9255299 20.1317169 39.6469316 20.0314548 38.8537791 20.0447248 38.5211668 20.2614679 38.3264322 20.5637287 38.1302762 20.621232 37.7962425 20.4619921 36.9760831 20.4487221 35.9185464 20.3764744 35.5020703 20.1744758 35.0571658 20.1169725 34.8496385 20.0019659 34.0977072 20.0742136 33.9726222 20.1169725 33.7650949 20.0314548 33.6115815 19.9562582 33.5419319 19.9267693 33.3059761 19.9415138 33.1098202 20.0019659 32.9150856 20.102228 32.720351 20.1892202 32.3465175 20.1169725 31.9428342 19.8840105 31.2747667 19.1924967 28.2300847 19.1497379 27.743959 19.2219856 27.4511464 19.5950197 26.9081639 19.7115007 26.5471232 19.7395151 26.1718682 19.6672674 25.4071442 19.5522608 24.7802979 19.5950197 24.5727705 19.8987549 24.1960942 20.0167104 23.9189172 20.5769987 23.112972 20.6639908 22.791731 20.6787353 22.4164761 20.6639908 22.0127928 20.5917431 21.6247451 20.5769987 21.2352759 20.6787353 20.8173784 21.2685125 19.3860083 21.2685125 19.2467091 21.1535059 19.1756381 20.9957405 19.0917743 20.8940039 18.9538965 20.9087484 18.6625054 21.240498 17.521105 21.2832569 16.9098943 21.1829948 16.2133984 20.7642529 14.6697361 20.6359764 13.7401273 20.7642529 13.0308386 21.1829948 12.5290773 21.8479685 12.2248934 22.5394823 12.0855942 22.8564875 11.9448736 23.0717562 11.7089179 23.3917104 11.0550646 23.5494758 10.8191088 24.5712647 9.8027934 24.9059633 9.58105185 24.978211 9.38631729 25.1227064 8.95704839 25.4957405 8.46807985 25.6697248 8.09282492 25.5974771 7.7744268 25.4824705 7.46882146 25.4824705 7.10635931 25.5974771 6.98127433 25.7699869 6.93863173 25.9292267 6.87040356 26 6.66003337 25.9572412 6.49372721 25.8127457 6.32742105 25.5679882 6.13268648 24.8779489 5.23008467 24.745249 4.97849329 24.5579948 4.68710216 24.2984928 4.50658179 24.0964941 4.25499042 24.0242464 3.7958717 24.1982307 3.08800445 24.615498 2.07168902 25.0076999 1.11223039 25.0209699 0.654533094 24.8160223 0.402941722 24.5579948 0.195414375 24.3559961 -0.194054756 24.2704784 -0.667387677 24.3559961 -0.874915024 24.5712647 -1 23.2015072 -0.653173475 21.8332241 -0.290711328 20.4619921 0.0561151968 19.0922346 0.417155924 17.7210026 0.763982449 16.3497706 1.11223039 14.9800131 1.46047834 13.61173 1.80730486 12.240498 2.15697423 10.8559961 2.50522217 9.48476409 2.8520487 8.11353211 3.18466102 5.3725426 3.87973549 3.98951507 4.21376924 2.72001966 4.520796 2.61975754 4.54780298 2.17005242 4.65867375 1.94003932 4.71410914"></polygon>
    </g>
</svg>