<?xml version="1.0" encoding="UTF-8"?>
<svg width="50px" height="65px" viewBox="0 0 50 65" version="1.1" xmlns="http://www.w3.org/2000/svg" xmlns:xlink="http://www.w3.org/1999/xlink">
    <!-- Generator: Sketch 51.1 (57501) - http://www.bohemiancoding.com/sketch -->
    <title>Fill 9</title>
    <desc>Created with Sketch.</desc>
    <defs></defs>
    <g id="Page-3" stroke="none" stroke-width="1" fill="none" fill-rule="evenodd">
        <polygon id="Fill-9" stroke="#FFFFFF" stroke-width="2" transform="translate(18.000000, 31.000000) rotate(12.000000) translate(-18.000000, -31.000000) " points="1.33114897 5.69278784 1.03407602 5.77683703 -0.71996505 6.20969038 -1.48885976 6.39249737 -2 6.70137816 -1.76627348 7.07119461 -1.65923984 7.31913973 -1.61555264 7.56498362 -1.68108344 7.85285211 -1.78811708 7.95581237 -1.95849716 8.03776034 -1.91480996 8.44750015 -1.72258628 9.39515481 -1.78811708 10.1536988 -1.74442988 10.6474878 -1.63739624 11.1223657 -1.46701616 11.4102342 -1.10441241 11.6140535 -0.848842289 11.8409863 -0.78549585 12.1708794 -0.912188729 12.7024906 -1.04106597 12.8474754 -1.16775885 12.8684877 -1.29663609 12.9294234 -1.38182612 13.1983808 -1.35998253 13.5261727 -1.14809961 13.6711575 -0.80515509 13.959026 -0.656618611 14.0619863 -0.527741372 14.2258822 -0.464394932 14.4927384 -0.527741372 14.6986589 -0.678462211 14.6986589 -0.80515509 14.5956987 -1.10441241 14.2048699 -1.35998253 14.2048699 -1.5303626 14.4717261 -1.51070336 15.0264508 -1.23328965 15.705148 -1.21144605 16.098078 -1.46701616 16.4258698 -1.27479249 16.6296891 -1.14809961 16.8356097 -1.08256881 17.0814536 -1.08256881 17.2873741 -0.955875928 17.2663618 -0.890345129 17.6151659 -0.678462211 18.1509795 -0.401048493 18.6048452 -0.186981215 18.7897534 0.304499782 18.8506891 0.52075142 19.1994932 0.47706422 19.6512576 0.197466142 20.0441876 0.712975098 20.5800012 0.905198777 20.9077931 0.905198777 21.2776095 0.841852337 21.6264137 0.861511577 21.9941289 0.968545216 22.3450343 1.18261249 22.6539151 1.07557886 22.2000494 1.05373526 21.6054014 1.13892529 21.1326247 1.37483617 21.071689 1.47968545 21.3574563 1.80078637 22.7967987 2.01485365 23.0027192 2.16339013 23.1897287 2.54783748 24.0512329 2.80777632 24.7908658 2.9563128 25.1417712 3.17038008 25.4086274 3.4696374 25.7175082 2.399301 27.5476794 1.92966361 27.9784315 2.35561381 28.8399357 2.31192661 31.6576849 2.69637396 32.7272109 2.76190476 32.4393424 2.9563128 32.170385 3.10703364 32.1115506 3.29925732 32.2544342 3.38444736 32.6032384 3.4041066 33.1369507 3.76671035 34.5153575 3.98077763 34.9671219 4.28003495 35.397874 4.64263871 35.7466782 4.83486239 35.9925221 4.96155526 36.2824918 4.98339886 36.6123849 4.92005242 37.1460973 4.94189602 37.4549781 5.1122761 37.7218343 5.6911315 38.0706384 5.90519878 38.2744577 5.99038882 38.5034917 6.18261249 39.3250726 5.84185234 42.2436809 5.84185234 42.491626 5.88335518 42.7984055 6.03407602 43.3741425 6.16076889 43.6830233 6.33114897 43.9519807 6.54521625 44.1768123 6.67190913 44.237748 6.94932285 44.0528398 7.14154653 43.8280082 7.27042377 43.5821643 7.27042377 42.9223781 7.35561381 42.6324084 7.54783748 42.4496014 7.67889908 42.3676534 7.82961992 42.3256288 7.9781564 42.2857055 8.31891656 42.2857055 8.491481 42.3046165 8.64001747 42.4075768 8.76889471 42.5315493 9.30187855 43.3951548 9.53560507 43.5821643 9.66448231 43.6220876 9.89820882 43.7670725 10.1166448 43.9309684 10.2433377 44.5046042 10.2870249 44.7105247 10.4137178 45.2463383 10.6059415 46.1099438 10.8636959 47.2172919 11.1826125 48.5137507 11.5233727 49.9741054 13 56.324022 13.6400175 59.1018478 13.8955876 60.2112972 14.0878113 61.0728014 14.2166885 61.6296273 14.2800349 61.8145356 14.3215378 62.1024041 14.3870686 62.5541685 14.3870686 63.5396453 14.9244211 64.3444163 15.3722149 65 18.491481 64.3633274 19.5399738 64.1574068 20.5862822 63.9514863 21.6304063 63.7455658 22.6592398 63.518633 23.7033639 63.3127124 24.7540411 63.1109944 25.7785059 62.8819603 26.8269987 62.678141 27.8733071 62.4722205 28.9174312 62.2473889 29.9462647 62.0414684 30.9903888 61.8145356 32.041066 61.608615 31.7003058 60.8689821 31.1411097 60.4151165 30.0096112 59.7805451 29.7540411 59.5326 29.583661 59.3056671 29.4132809 59.0198999 29.2625601 58.6269699 29.1577108 58.1541932 29.17737 57.805389 29.2429008 57.4986095 29.3062473 57.0867684 29.1577108 55.9142822 29.17737 55.4225944 29.4984709 55.1347259 29.9462647 54.8447562 30.0314548 54.3509672 29.7955439 53.1385576 29.7758847 51.5752426 29.668851 50.9595822 29.3695937 50.3018973 29.2844037 49.9951177 29.1140236 48.8835671 29.2210572 48.6986589 29.2844037 48.3918794 29.1577108 48.1649465 29.0463084 48.0619863 29.0026212 47.7131821 29.0244648 47.4232124 29.1140236 47.1353439 29.2625601 46.8474754 29.3914373 46.294852 29.2844037 45.6981027 28.9392748 44.7105247 27.91481 40.2096904 27.8514635 39.4910698 27.9584972 39.0582164 28.5111402 38.2555466 28.6837047 37.7218343 28.7252075 37.1671096 28.6181739 36.0366479 28.4477938 35.1100056 28.5111402 34.803226 28.9611184 34.2464001 29.1358672 33.8366603 29.965924 32.645263 30.0948012 32.170385 30.1166448 31.6156603 30.0948012 31.0189111 29.9877676 30.4452753 29.965924 29.8695383 30.1166448 29.2517768 30.9903888 27.1358383 30.9903888 26.9299178 30.8200087 26.8248563 30.5862822 26.7008838 30.4355614 26.4970645 30.457405 26.0663123 30.948886 24.3790248 31.0122324 23.475496 30.8636959 22.4458933 30.2433377 20.1639577 30.0532984 18.7897534 30.2433377 17.7412397 30.8636959 16.9995056 31.8488423 16.5498424 32.8733071 16.3439219 33.3429445 16.1359001 33.6618611 15.787096 34.1358672 14.8205303 34.3695937 14.4717261 35.8833552 12.9693468 36.3792049 12.6415549 36.4862385 12.3536864 36.7003058 11.719115 37.2529489 10.9962919 37.5107034 10.4415673 37.4036697 9.97089179 37.2332896 9.51912737 37.2332896 8.98331376 37.4036697 8.79840554 37.6592398 8.73536864 37.8951507 8.63450961 38 8.32352759 37.9366536 8.0776837 37.7225863 7.83183981 37.3599825 7.54397132 36.3377021 6.20969038 36.1411097 5.8377727 35.8636959 5.40702058 35.4792486 5.14016439 35.1799913 4.76824671 35.0729576 4.08954947 35.3307121 3.04313701 35.948886 1.54075768 36.5299257 0.122427538 36.549585 -0.554168469 36.2459589 -0.92608615 35.8636959 -1.23286571 35.5644386 -1.80860268 35.4377457 -2.50831222 35.5644386 -2.81509177 35.8833552 -3 33.8540848 -2.48729992 31.8269987 -1.95148631 29.7955439 -1.43878623 27.7662735 -0.905073852 25.7348187 -0.392373772 23.7033639 0.122427538 21.6740935 0.637228849 19.6470074 1.14992893 17.6155526 1.66683147 15.5644386 2.18163278 13.5329838 2.69433286 11.5015291 3.18602064 7.44080384 4.21352203 5.39187418 4.70731104 3.51114024 5.16117669 3.36260376 5.20110006 2.69637396 5.36499598 2.35561381 5.44694395"></polygon>
    </g>
</svg>